#!OML:ASF I:\Actors\actors\Patient Classification 1\Patient 1\Session 1\Subject1.ASF
:FULLY-SPECIFIED
:DEGREES
925
root 0.737826 17.4468 9.3972 8.36426 0.958686 -8.36476
lowerback -3.18415 1.87294 5.05986
upperback -10.0645 2.72063 1.23049
thorax -8.66722 1.01093 -1.63219
lowerneck -7.79795 -7.03795 -9.33411
upperneck 23.0498 -12.5068 16.7264
head 10.2895 -5.05767 6.05387
rclavicle 1.65985e-014 -1.59028e-015
rhumerus -46.0271 11.3559 -98.7437
rradius 102.308
rwrist -8.64878
rhand 7.16742 -41.5017
rfingers 7.12502
rthumb 32.435 -68.6195
lclavicle 1.65985e-014 -1.59028e-015
lhumerus 12.9931 -38.3312 82.3192
lradius 144.557
lwrist 22.6948
lhand -26.6603 -8.08516
lfingers 7.12502
lthumb -0.0919582 21.8946
rfemur -2.65255 22.7443 25.2668
rtibia 3.75323
rfoot -13.798 -25.5036
rtoes 4.16342
lfemur 7.17005 -46.1753 -14.6065
ltibia -4.75539
lfoot -21.917 52.4337
ltoes 10.1437
926
root 0.73332 17.4497 9.36269 8.29166 -0.0562863 -7.96553
lowerback -2.52847 2.04682 4.44727
upperback -10.0912 2.97574 1.14135
thorax -9.08151 1.16942 -1.42317
lowerneck -7.94275 -7.09009 -9.1816
upperneck 23.3437 -12.588 16.4788
head 10.4091 -5.08863 5.92872
rclavicle -1.0635e-014 -1.07344e-014
rhumerus -44.0737 12.7451 -99.5305
rradius 102.87
rwrist -10.1596
rhand 6.42073 -41.8054
rfingers 7.12502
rthumb 31.7241 -69.0662
lclavicle -1.0635e-014 -1.07344e-014
lhumerus 12.8851 -38.2869 82.3538
lradius 144.563
lwrist 22.545
lhand -26.5106 -7.99865
lfingers 7.12502
lthumb 0.0526288 21.9811
rfemur -3.09246 23.094 24.6074
rtibia 4.21734
rfoot -13.6401 -24.9569
rtoes 3.8784
lfemur 7.4323 -46.1394 -15.342
ltibia -4.63133
lfoot -23.1469 52.9888
ltoes 11.3786
927
root 0.736464 17.4526 9.38233 8.47289 0.228733 -8.4652
lowerback -3.1551 1.93884 5.04381
upperback -10.04 2.80698 1.23258
thorax -8.65173 1.05457 -1.62481
lowerneck -8.20865 -7.2681 -8.62691
upperneck 23.7903 -12.7812 15.6315
head 10.5518 -5.18148 5.491
rclavicle 1.54058e-014 -7.95139e-015
rhumerus -42.0041 14.0725 -100.188
rradius 103.09
rwrist -11.0126
rhand 5.36324 -42.0331
rfingers 7.12502
rthumb 30.7164 -69.4882
lclavicle 1.54058e-014 -7.95139e-015
lhumerus 12.8207 -38.194 82.3515
lradius 144.611
lwrist 22.6691
lhand -26.3948 -7.6409
lfingers 7.12502
lthumb 0.164448 22.3388
rfemur -2.96758 22.9707 25.2403
rtibia 3.87041
rfoot -13.5761 -25.0602
rtoes 3.79284
lfemur 7.16381 -45.93 -14.5075
ltibia -4.74703
lfoot -22.6391 52.7008
ltoes 10.9329
928
root 0.737598 17.4534 9.38605 8.536 0.089488 -8.59236
lowerback -3.34689 1.9871 5.19643
upperback -10.0232 2.85732 1.19877
thorax -8.51109 1.0698 -1.73924
lowerneck -8.65375 -7.30519 -8.82364
upperneck 24.6279 -12.9258 15.6624
head 10.9923 -5.21274 5.534
rclavicle 1.07344e-014 2.50469e-014
rhumerus -39.9637 15.166 -100.704
rradius 102.969
rwrist -11.6569
rhand 4.11755 -42.4863
rfingers 7.12502
rthumb 29.5279 -70.158
lclavicle 1.07344e-014 2.50469e-014
lhumerus 12.7499 -38.1871 82.454
lradius 144.642
lwrist 22.9173
lhand -26.1662 -7.3941
lfingers 7.12502
lthumb 0.385252 22.5853
rfemur -2.93034 23.0178 25.3819
rtibia 3.69652
rfoot -13.3688 -25.0113
rtoes 3.41173
lfemur 7.24809 -46.0073 -14.4327
ltibia -4.79985
lfoot -22.9724 52.8527
ltoes 11.2891
929
root 0.738779 17.4535 9.38265 8.51323 -0.202749 -8.61288
lowerback -3.30467 2.09738 5.20458
upperback -10.0119 3.0039 1.14689
thorax -8.51008 1.13919 -1.80486
lowerneck -8.67646 -7.30021 -8.96021
upperneck 24.8718 -12.9785 15.8252
head 11.1207 -5.22438 5.62217
rclavicle 1.0138e-014 9.54166e-015
rhumerus -38.0198 16.2386 -101.185
rradius 102.548
rwrist -13.2032
rhand 2.08434 -43.1128
rfingers 7.12502
rthumb 27.5852 -71.1111
lclavicle 1.0138e-014 9.54166e-015
lhumerus 12.6574 -38.1832 82.6532
lradius 144.636
lwrist 23.1072
lhand -25.8055 -7.44471
lfingers 7.12502
lthumb 0.73363 22.5338
rfemur -2.90116 23.0792 25.3855
rtibia 3.63211
rfoot -13.2094 -24.8188
rtoes 3.08011
lfemur 7.47664 -46.0666 -14.6118
ltibia -4.82163
lfoot -23.3738 53.107
ltoes 11.6981
930
root 0.739074 17.4531 9.37999 8.4854 -0.4531 -8.66337
lowerback -3.4604 2.14787 5.12108
upperback -9.84747 3.05501 1.21679
thorax -8.23902 1.18371 -1.67727
lowerneck -8.72212 -7.28916 -8.95553
upperneck 24.8431 -12.9338 15.7524
head 11.1055 -5.20949 5.59732
rclavicle 1.78906e-015 -1.19271e-015
rhumerus -35.9944 17.8144 -101.695
rradius 101.96
rwrist -16.5326
rhand -2.52639 -43.3495
rfingers 7.12502
rthumb 23.1684 -71.9762
lclavicle 1.78906e-015 -1.19271e-015
lhumerus 12.7879 -37.936 82.7141
lradius 144.635
lwrist 23.2325
lhand -25.5326 -7.49731
lfingers 7.12502
lthumb 0.997145 22.4801
rfemur -2.86394 23.0977 25.4344
rtibia 3.58941
rfoot -13.164 -24.5861
rtoes 2.86447
lfemur 7.6979 -46.1178 -14.7529
ltibia -4.83644
lfoot -23.67 53.3793
ltoes 11.8359
